<svg xmlns="http://www.w3.org/2000/svg" viewBox="0 0 801.868 300.988" height="300.987" width="801.868"><g transform="translate(-353.927 -22.643)"><rect width="165.802" height="35" x="355.524" y="192.847" ry="10.765" fill="#f1a142" paint-order="markers fill stroke"/><path d="M546.565 192.847h45.322c6.12 0 11.047 4.927 11.047 11.047v108.689c0 6.12-4.927 11.047-11.047 11.047h-45.322a11.023 11.023 0 01-11.047-11.047v-108.69c0-6.12 4.927-11.046 11.047-11.046z" fill="#916128" paint-order="markers fill stroke"/><rect ry="10.765" y="288.63" x="355.524" height="35" width="165.802" fill="#f1a142" paint-order="markers fill stroke"/><rect width="165.802" height="35" x="355.524" y="240.738" ry="10.765" fill="#f1a142" paint-order="markers fill stroke"/><circle r="15" cy="154.955" cx="479.229" fill="#d9913b" paint-order="markers fill stroke"/><path d="M478.67 63.22l-93.242 116.735h32.018l61.277-76.596 61.278 76.596h32.017z" style="line-height:normal;font-variant-ligatures:normal;font-variant-position:normal;font-variant-caps:normal;font-variant-numeric:normal;font-variant-alternates:normal;font-variant-east-asian:normal;font-feature-settings:normal;font-variation-settings:normal;text-indent:0;text-align:start;text-decoration-line:none;text-decoration-style:solid;text-decoration-color:#000;text-transform:none;text-orientation:mixed;white-space:normal;shape-padding:0;shape-margin:0;inline-size:0;isolation:auto;mix-blend-mode:normal;solid-color:#000;solid-opacity:1" color="#000" font-weight="400" font-family="sans-serif" overflow="visible" fill="#916128"/><path d="M469.196 27.222L355.329 169.556a6.4 6.4 64.33 004.998 10.4h25.103l93.293-116.618 93.295 116.617h22.888a7.465 7.465 115.67 005.83-12.128L488.25 27.222a12.201 12.201 180 00-19.055 0z" style="line-height:normal;font-variant-ligatures:normal;font-variant-position:normal;font-variant-caps:normal;font-variant-numeric:normal;font-variant-alternates:normal;font-variant-east-asian:normal;font-feature-settings:normal;font-variation-settings:normal;text-indent:0;text-align:start;text-decoration-line:none;text-decoration-style:solid;text-decoration-color:#000;text-transform:none;text-orientation:mixed;white-space:normal;shape-padding:0;shape-margin:0;inline-size:0;isolation:auto;mix-blend-mode:normal;solid-color:#000;solid-opacity:1" color="#000" font-weight="400" font-family="sans-serif" overflow="visible" fill="#d9913b"/></g><text y="637.157" x="720.491" style="line-height:1.25;-inkscape-font-specification:Arial" font-weight="400" font-size="175.163" font-family="Arial" fill="#f1a142" transform="translate(-380.189 -511.772)"><tspan dx="0 0" style="-inkscape-font-specification:Arial" y="637.157" x="720.491" fill="#32cd81">Vue</tspan></text><text transform="matrix(1.00895 0 0 .99113 -380.189 -511.772)" y="787.122" x="659.818" style="line-height:1.25;-inkscape-font-specification:Arial" font-weight="400" font-size="156.382" font-family="Arial" fill="#f1a142"><tspan style="-inkscape-font-specification:Arial" y="787.122" x="659.818">Formily</tspan></text></svg>
